<svg xmlns="http://www.w3.org/2000/svg" viewBox="0 0 3341 3934" width="34" height="34" style="color: rgba(0, 0, 0, 0.88);"><path fill="currentColor" d="M1618 1.6c-69.9 3.1-105 5.9-157 12.5-332 41.7-643.6 183.3-895.9 407.3C496.8 482 429.3 553.3 369.4 628 171.7 874.8 47.3 1173.3 11.6 1486.5 3.2 1559.7.5 1616.2 1.3 1697.4c.5 54.5 1 67.5 4.3 110.6 18.3 245.8 92.1 487.6 214.2 702 67.3 118.1 152.1 232.3 243.8 328 31.1 32.5 1016.7 1022 1024.5 1028.6 31.7 26.6 66.2 45.3 103.3 56 28.5 8.2 48.9 10.9 81.1 10.8 19.2-.1 26.8-.5 38-2.2 63.2-9.7 113.8-35.4 161.2-81.8 11.2-11 627.3-630.1 945.8-950.4 73.7-74.1 96.2-98.3 137-147.5 101.9-122.6 187.8-263.2 250.6-409.6 107.1-250 151.6-521.5 130.4-795.4-13-168-52.2-335.4-115.5-493.5-58-145.2-136.3-281.3-233.9-407-63.2-81.3-140.9-164-216.6-230.5-263.3-231-587.8-372.3-933.5-406.4-23.1-2.3-52.5-4.6-80-6.2-17.7-1-122.4-2-138-1.3zm141 300.8c189 13.5 357.6 59.1 522 141.2 134.9 67.4 250.6 151.2 360.5 260.9 208 207.7 344 478.3 386.9 770 2.9 19.7 6.6 48.8 6.6 52.2v2.3h-233.2c-142.5 0-240.7-.4-252.3-1-80.5-4.3-150.8-17.1-219.5-40-71.7-23.9-129.9-53-244-121.7-22.8-13.8-50.5-30.2-61.5-36.5-107.3-61.6-187.3-89.1-289.5-99.5-22.2-2.3-101.2-2.6-123.5-.5-64.2 6-121 19.5-178.2 42.3-49.5 19.7-95.8 44.3-184.3 97.9-89.9 54.5-139.8 80.6-198.3 103.6-44.7 17.7-86.5 30-134.1 39.3-31.4 6.3-58.2 9.8-106.6 14.3-15.2 1.4-504 2.4-504 1 0-.5 1.1-10.1 2.5-21.3 35.2-284.5 157.3-549.1 351.7-761.4 34.1-37.2 94-94.4 133.3-127.2 121-100.8 254.2-178.3 399.5-232.6 127.7-47.7 263-76.1 398.5-83.7 10.5-.6 21.7-1.2 25-1.4 17.4-1 121.7.3 142.5 1.8zm-54 1135.1c25.5 3.8 48.7 11.1 72 22.6 71.8 35.2 120.8 102.2 133.5 182.4 2.5 15.6 3.1 46.3 1.1 62.9-6.7 57.8-31.8 108.7-73.4 148.8-59.5 57.3-143 80.2-223.2 61.3-25-5.9-55.1-18.8-76-32.5-78.9-51.7-121.7-145.4-108.5-237.5 11.5-81 60.8-149.4 133-185 28.5-14 53.4-21.2 85.5-24.5 11.9-1.2 43.5-.4 56 1.5zM784.6 1829c138.2 7.9 269 52.2 386.2 130.7 86.4 57.8 164.1 135.3 221.8 221.3 67.1 99.9 109.3 210.7 123.8 325 5.1 39.8 4.9 30.1 5.3 295.2l.4 247.8h-2.5c-1.4 0-11.4-1.1-22.3-2.5-325-41.3-624.5-198.5-845-443.6C468 2398.1 349.9 2145 311.6 1872.5c-2.2-15.7-5.6-42.2-5.6-43.9 0-1.1 459.7-.7 478.6.4zm2250.4 1c0 1.1-1.4 12.7-3 25.8-33.2 259.5-140.3 505.5-307.6 706.2-143.3 171.9-323.1 304.9-528.4 390.7-99.4 41.6-210.5 72.8-316 88.7-20.3 3.1-54.5 7.6-57.7 7.6h-2.3v-244.3c0-155.2.4-249.5 1-258.7 12.4-176.6 90.3-345.6 220.9-479.3 138.4-141.6 321.2-226.5 511.6-237.6 7.7-.4 119.2-.9 247.8-1 233.6-.1 233.7-.1 233.7 1.9z"></path></svg>